<!DOCTYPE svg PUBLIC "-//W3C//DTD SVG 1.1//EN" "http://www.w3.org/Graphics/SVG/1.1/DTD/svg11.dtd">
<!-- Uploaded to: SVG Repo, www.svgrepo.com, Transformed by: SVG Repo Mixer Tools -->
<svg fill="#6366f1" height="800px" width="800px" version="1.1" id="Capa_1" xmlns="http://www.w3.org/2000/svg" xmlns:xlink="http://www.w3.org/1999/xlink" viewBox="-22.81 -22.81 69.38 69.38" xml:space="preserve" stroke="#6366f1" stroke-width="0.00023757999999999999" transform="rotate(0)">
<g id="SVGRepo_bgCarrier" stroke-width="0" transform="translate(0,0), scale(1)">
<path transform="translate(-22.81, -22.81), scale(2.168125)" d="M16,29.961716384161264C18.361665016633655,30.31373532335687,20.402551691452167,28.398763615319915,22.505626571830362,27.268075757480325C24.66987917858549,26.104496577971677,27.16242383644373,25.276407361536037,28.521877784085564,23.229509509401396C29.90588840399076,21.145637253096133,29.778724214053394,18.49271802446447,29.989356184843928,16C30.217012295956273,13.305810274578091,31.288433452974402,10.290293578562402,29.80631089184329,8.02892269007862C28.31883140309536,5.7593783883548815,25.03318578592914,5.750184599730124,22.55177336535417,4.65199565153006C20.35036328276974,3.6777262382294538,18.36052696627112,1.446150788673787,16,1.9187179086729884C13.583064824875574,2.402577704071796,12.869391661747267,5.6553254776395505,10.805854951497171,7.003476874110781C8.906742779235667,8.2442063044971,5.745679183343971,7.461224081959018,4.558045472184759,9.393984473310404C3.3782974522796803,11.31391165559134,5.14246004828848,13.750637320662328,5.277712821029127,15.999999999999998C5.4031515466612765,18.08614716181593,4.313866700684661,20.334163213148624,5.325822713099395,22.162739129969843C6.338755603234954,23.993080237226284,8.836249278023347,24.248220235028786,10.525361265288662,25.48235244160462C12.462208147759359,26.897489587563207,13.627463763024677,29.608077030797908,16,29.961716384161264" fill="#0f172a" strokewidth="0"/>
</g>
<g id="SVGRepo_tracerCarrier" stroke-linecap="round" stroke-linejoin="round" stroke="#CCCCCC" stroke-width="0.332612"/>
<g id="SVGRepo_iconCarrier"> <g> <g> <path d="M4.523,23.758V0h14.712v4.021H9.319v5.625h9.916v4.016H9.319v10.096H4.523z"/> </g> <g> </g> <g> </g> <g> </g> <g> </g> <g> </g> <g> </g> <g> </g> <g> </g> <g> </g> <g> </g> <g> </g> <g> </g> <g> </g> <g> </g> <g> </g> </g> </g>
</svg>